<mxfile host="app.diagrams.net" modified="2022-04-23T02:34:23.130Z" agent="5.0 (Windows NT 10.0; Win64; x64) AppleWebKit/537.36 (KHTML, like Gecko) Chrome/100.0.4896.127 Safari/537.36" etag="212-rtfOnkguUDV2j48n" version="17.4.6" type="github">
  <diagram id="6a731a19-8d31-9384-78a2-239565b7b9f0" name="Page-1">
    <mxGraphModel dx="1564" dy="872" grid="1" gridSize="10" guides="1" tooltips="1" connect="1" arrows="1" fold="1" page="1" pageScale="1" pageWidth="1169" pageHeight="827" background="none" math="0" shadow="0">
      <root>
        <mxCell id="0" />
        <mxCell id="1" parent="0" />
        <mxCell id="S0fhdixsc0MmFp-bA-4p-72" style="edgeStyle=orthogonalEdgeStyle;rounded=0;orthogonalLoop=1;jettySize=auto;html=1;exitX=0.5;exitY=1;exitDx=0;exitDy=0;exitPerimeter=0;entryX=0.5;entryY=0;entryDx=0;entryDy=0;" edge="1" parent="1" source="2" target="baCHSK5opTPXhJyVzOMd-56">
          <mxGeometry relative="1" as="geometry" />
        </mxCell>
        <mxCell id="2" value="start" style="shape=mxgraph.flowchart.terminator;strokeWidth=2;gradientColor=none;gradientDirection=north;fontStyle=0;html=1;" parent="1" vertex="1">
          <mxGeometry x="255" y="60" width="120" height="30" as="geometry" />
        </mxCell>
        <mxCell id="40" value="end" style="shape=mxgraph.flowchart.terminator;strokeWidth=2;gradientColor=none;gradientDirection=north;fontStyle=0;html=1;" parent="1" vertex="1">
          <mxGeometry x="255" y="760" width="120" height="30" as="geometry" />
        </mxCell>
        <mxCell id="S0fhdixsc0MmFp-bA-4p-70" style="edgeStyle=orthogonalEdgeStyle;rounded=0;orthogonalLoop=1;jettySize=auto;html=1;exitX=0.5;exitY=1;exitDx=0;exitDy=0;entryX=0.5;entryY=0;entryDx=0;entryDy=0;" edge="1" parent="1" source="baCHSK5opTPXhJyVzOMd-56" target="baCHSK5opTPXhJyVzOMd-58">
          <mxGeometry relative="1" as="geometry" />
        </mxCell>
        <mxCell id="baCHSK5opTPXhJyVzOMd-56" value="文字列を受け取る" style="rounded=1;whiteSpace=wrap;html=1;hachureGap=4;" parent="1" vertex="1">
          <mxGeometry x="254.5" y="130" width="120" height="30" as="geometry" />
        </mxCell>
        <mxCell id="baCHSK5opTPXhJyVzOMd-66" style="edgeStyle=none;curved=1;rounded=0;orthogonalLoop=1;jettySize=auto;html=1;exitX=1;exitY=0.5;exitDx=0;exitDy=0;endArrow=open;startSize=14;endSize=14;sourcePerimeterSpacing=8;targetPerimeterSpacing=8;" parent="1" source="baCHSK5opTPXhJyVzOMd-58" edge="1">
          <mxGeometry relative="1" as="geometry">
            <mxPoint x="332" y="240" as="targetPoint" />
          </mxGeometry>
        </mxCell>
        <mxCell id="S0fhdixsc0MmFp-bA-4p-62" style="edgeStyle=orthogonalEdgeStyle;rounded=0;orthogonalLoop=1;jettySize=auto;html=1;exitX=0.5;exitY=1;exitDx=0;exitDy=0;entryX=0.5;entryY=0;entryDx=0;entryDy=0;" edge="1" parent="1" source="baCHSK5opTPXhJyVzOMd-58" target="baCHSK5opTPXhJyVzOMd-64">
          <mxGeometry relative="1" as="geometry" />
        </mxCell>
        <mxCell id="baCHSK5opTPXhJyVzOMd-58" value="文字列がすべて数字である" style="rhombus;whiteSpace=wrap;html=1;hachureGap=4;" parent="1" vertex="1">
          <mxGeometry x="250" y="200" width="130" height="80" as="geometry" />
        </mxCell>
        <mxCell id="S0fhdixsc0MmFp-bA-4p-57" style="edgeStyle=orthogonalEdgeStyle;rounded=0;orthogonalLoop=1;jettySize=auto;html=1;exitX=1;exitY=0.5;exitDx=0;exitDy=0;" edge="1" parent="1" source="baCHSK5opTPXhJyVzOMd-60" target="baCHSK5opTPXhJyVzOMd-62">
          <mxGeometry relative="1" as="geometry" />
        </mxCell>
        <mxCell id="S0fhdixsc0MmFp-bA-4p-63" style="edgeStyle=orthogonalEdgeStyle;rounded=0;orthogonalLoop=1;jettySize=auto;html=1;exitX=0.5;exitY=1;exitDx=0;exitDy=0;entryX=0.5;entryY=0;entryDx=0;entryDy=0;" edge="1" parent="1" source="baCHSK5opTPXhJyVzOMd-60" target="baCHSK5opTPXhJyVzOMd-64">
          <mxGeometry relative="1" as="geometry" />
        </mxCell>
        <mxCell id="baCHSK5opTPXhJyVzOMd-60" value="最後が５である" style="rhombus;whiteSpace=wrap;html=1;hachureGap=4;" parent="1" vertex="1">
          <mxGeometry x="380" y="275" width="100" height="65" as="geometry" />
        </mxCell>
        <mxCell id="S0fhdixsc0MmFp-bA-4p-60" style="edgeStyle=orthogonalEdgeStyle;rounded=0;orthogonalLoop=1;jettySize=auto;html=1;exitX=1;exitY=0.5;exitDx=0;exitDy=0;entryX=0.5;entryY=0;entryDx=0;entryDy=0;" edge="1" parent="1" source="baCHSK5opTPXhJyVzOMd-61" target="baCHSK5opTPXhJyVzOMd-77">
          <mxGeometry relative="1" as="geometry">
            <mxPoint x="640" y="499.8571428571429" as="targetPoint" />
          </mxGeometry>
        </mxCell>
        <mxCell id="S0fhdixsc0MmFp-bA-4p-64" style="edgeStyle=orthogonalEdgeStyle;rounded=0;orthogonalLoop=1;jettySize=auto;html=1;exitX=0.5;exitY=1;exitDx=0;exitDy=0;" edge="1" parent="1" source="baCHSK5opTPXhJyVzOMd-61" target="baCHSK5opTPXhJyVzOMd-64">
          <mxGeometry relative="1" as="geometry" />
        </mxCell>
        <mxCell id="baCHSK5opTPXhJyVzOMd-61" value="0が含まれる" style="rhombus;whiteSpace=wrap;html=1;hachureGap=4;" parent="1" vertex="1">
          <mxGeometry x="456.25" y="470" width="107.5" height="60" as="geometry" />
        </mxCell>
        <mxCell id="S0fhdixsc0MmFp-bA-4p-58" style="edgeStyle=orthogonalEdgeStyle;rounded=0;orthogonalLoop=1;jettySize=auto;html=1;exitX=0.5;exitY=1;exitDx=0;exitDy=0;entryX=0.5;entryY=0;entryDx=0;entryDy=0;" edge="1" parent="1" source="baCHSK5opTPXhJyVzOMd-62" target="baCHSK5opTPXhJyVzOMd-61">
          <mxGeometry relative="1" as="geometry" />
        </mxCell>
        <mxCell id="S0fhdixsc0MmFp-bA-4p-59" style="edgeStyle=orthogonalEdgeStyle;rounded=0;orthogonalLoop=1;jettySize=auto;html=1;exitX=1;exitY=0.5;exitDx=0;exitDy=0;entryX=0.5;entryY=0;entryDx=0;entryDy=0;" edge="1" parent="1" source="baCHSK5opTPXhJyVzOMd-62" target="baCHSK5opTPXhJyVzOMd-77">
          <mxGeometry relative="1" as="geometry" />
        </mxCell>
        <mxCell id="baCHSK5opTPXhJyVzOMd-62" value="1が含まれる" style="rhombus;whiteSpace=wrap;html=1;hachureGap=4;" parent="1" vertex="1">
          <mxGeometry x="460" y="360" width="100" height="60" as="geometry" />
        </mxCell>
        <mxCell id="S0fhdixsc0MmFp-bA-4p-67" style="edgeStyle=orthogonalEdgeStyle;rounded=0;orthogonalLoop=1;jettySize=auto;html=1;exitX=0.5;exitY=1;exitDx=0;exitDy=0;entryX=0.5;entryY=0;entryDx=0;entryDy=0;entryPerimeter=0;" edge="1" parent="1" source="baCHSK5opTPXhJyVzOMd-64" target="40">
          <mxGeometry relative="1" as="geometry" />
        </mxCell>
        <mxCell id="baCHSK5opTPXhJyVzOMd-64" value="Not Accepted" style="rounded=1;whiteSpace=wrap;html=1;hachureGap=4;" parent="1" vertex="1">
          <mxGeometry x="257" y="650" width="115" height="30" as="geometry" />
        </mxCell>
        <mxCell id="baCHSK5opTPXhJyVzOMd-67" value="" style="endArrow=classic;html=1;rounded=0;startSize=14;endSize=14;sourcePerimeterSpacing=8;targetPerimeterSpacing=8;exitX=1;exitY=0.5;exitDx=0;exitDy=0;entryX=0.5;entryY=0;entryDx=0;entryDy=0;edgeStyle=orthogonalEdgeStyle;" parent="1" source="baCHSK5opTPXhJyVzOMd-58" target="baCHSK5opTPXhJyVzOMd-60" edge="1">
          <mxGeometry width="50" height="50" relative="1" as="geometry">
            <mxPoint x="130" y="320" as="sourcePoint" />
            <mxPoint x="180" y="270" as="targetPoint" />
          </mxGeometry>
        </mxCell>
        <mxCell id="S0fhdixsc0MmFp-bA-4p-68" style="edgeStyle=orthogonalEdgeStyle;rounded=0;orthogonalLoop=1;jettySize=auto;html=1;exitX=0.5;exitY=1;exitDx=0;exitDy=0;entryX=0.5;entryY=0;entryDx=0;entryDy=0;entryPerimeter=0;" edge="1" parent="1" source="baCHSK5opTPXhJyVzOMd-77" target="40">
          <mxGeometry relative="1" as="geometry" />
        </mxCell>
        <mxCell id="baCHSK5opTPXhJyVzOMd-77" value="Accepted" style="rounded=1;whiteSpace=wrap;html=1;hachureGap=4;" parent="1" vertex="1">
          <mxGeometry x="563.75" y="640" width="120" height="30" as="geometry" />
        </mxCell>
        <mxCell id="baCHSK5opTPXhJyVzOMd-118" value="Yes" style="text;html=1;align=center;verticalAlign=middle;resizable=0;points=[];autosize=1;strokeColor=none;fillColor=none;hachureGap=4;" parent="1" vertex="1">
          <mxGeometry x="365" y="200" width="30" height="20" as="geometry" />
        </mxCell>
        <mxCell id="baCHSK5opTPXhJyVzOMd-119" value="Yes" style="text;html=1;align=center;verticalAlign=middle;resizable=0;points=[];autosize=1;strokeColor=none;fillColor=none;hachureGap=4;" parent="1" vertex="1">
          <mxGeometry x="555" y="360" width="30" height="20" as="geometry" />
        </mxCell>
        <mxCell id="baCHSK5opTPXhJyVzOMd-120" value="Yes" style="text;html=1;align=center;verticalAlign=middle;resizable=0;points=[];autosize=1;strokeColor=none;fillColor=none;hachureGap=4;" parent="1" vertex="1">
          <mxGeometry x="480" y="280" width="30" height="20" as="geometry" />
        </mxCell>
        <mxCell id="baCHSK5opTPXhJyVzOMd-121" value="Yes" style="text;html=1;align=center;verticalAlign=middle;resizable=0;points=[];autosize=1;strokeColor=none;fillColor=none;hachureGap=4;" parent="1" vertex="1">
          <mxGeometry x="560" y="470" width="30" height="20" as="geometry" />
        </mxCell>
        <mxCell id="baCHSK5opTPXhJyVzOMd-123" value="No" style="text;html=1;align=center;verticalAlign=middle;resizable=0;points=[];autosize=1;strokeColor=none;fillColor=none;hachureGap=4;" parent="1" vertex="1">
          <mxGeometry x="270" y="280" width="30" height="20" as="geometry" />
        </mxCell>
        <mxCell id="baCHSK5opTPXhJyVzOMd-124" value="No" style="text;html=1;align=center;verticalAlign=middle;resizable=0;points=[];autosize=1;strokeColor=none;fillColor=none;hachureGap=4;" parent="1" vertex="1">
          <mxGeometry x="470" y="420" width="30" height="20" as="geometry" />
        </mxCell>
        <mxCell id="baCHSK5opTPXhJyVzOMd-125" value="No" style="text;html=1;align=center;verticalAlign=middle;resizable=0;points=[];autosize=1;strokeColor=none;fillColor=none;hachureGap=4;" parent="1" vertex="1">
          <mxGeometry x="470" y="520" width="30" height="20" as="geometry" />
        </mxCell>
        <mxCell id="S0fhdixsc0MmFp-bA-4p-65" style="edgeStyle=orthogonalEdgeStyle;rounded=0;orthogonalLoop=1;jettySize=auto;html=1;exitX=0.5;exitY=1;exitDx=0;exitDy=0;" edge="1" parent="1" source="baCHSK5opTPXhJyVzOMd-64" target="baCHSK5opTPXhJyVzOMd-64">
          <mxGeometry relative="1" as="geometry" />
        </mxCell>
        <mxCell id="S0fhdixsc0MmFp-bA-4p-73" value="No" style="text;html=1;align=center;verticalAlign=middle;resizable=0;points=[];autosize=1;strokeColor=none;fillColor=none;" vertex="1" parent="1">
          <mxGeometry x="390" y="340" width="30" height="20" as="geometry" />
        </mxCell>
      </root>
    </mxGraphModel>
  </diagram>
</mxfile>
